<!-- Generator: Adobe Illustrator 19.2.1, SVG Export Plug-In  -->
<svg version="1.1"
	 xmlns="http://www.w3.org/2000/svg" xmlns:xlink="http://www.w3.org/1999/xlink" xmlns:a="http://ns.adobe.com/AdobeSVGViewerExtensions/3.0/"
	 x="0px" y="0px" width="79.8px" height="79.8px" viewBox="0 0 79.8 79.8" style="enable-background:new 0 0 79.8 79.8;"
	 xml:space="preserve">
<style type="text/css">
	.st0{fill:#4178BE;}
</style>
<defs>
</defs>
<g id="XMLID_1_">
	<path id="XMLID_3_" class="st0" d="M39.9,0C17.9,0,0,17.9,0,39.9s17.9,39.9,39.9,39.9s39.9-17.9,39.9-39.9S61.9,0,39.9,0z
		 M39.9,74.5C20.8,74.5,5.3,59,5.3,39.9S20.8,5.3,39.9,5.3s34.6,15.5,34.6,34.6S59,74.5,39.9,74.5z"/>
	<polygon id="XMLID_2_" class="st0" points="40.7,24.7 36.9,20.9 18,39.9 36.9,58.9 40.7,55.1 28.1,42.6 61.6,42.6 61.6,37.2 
		28.1,37.2 	"/>
</g>
</svg>
