<!-- Generator: Adobe Illustrator 19.2.1, SVG Export Plug-In  -->
<svg version="1.1"
	 xmlns="http://www.w3.org/2000/svg" xmlns:xlink="http://www.w3.org/1999/xlink" xmlns:a="http://ns.adobe.com/AdobeSVGViewerExtensions/3.0/"
	 x="0px" y="0px" width="79.8px" height="79.8px" viewBox="0 0 79.8 79.8" style="enable-background:new 0 0 79.8 79.8;"
	 xml:space="preserve">
<style type="text/css">
	.st0{fill:#333333;}
</style>
<defs>
</defs>
<g id="XMLID_1_">
	<polygon id="XMLID_6_" class="st0" points="45.6,34.2 28.5,34.2 28.5,39.9 34.2,39.9 34.2,57 28.5,57 28.5,62.7 51.3,62.7 51.3,57 
		45.6,57 	"/>
	<circle id="XMLID_5_" class="st0" cx="39.9" cy="22.8" r="5.7"/>
	<path id="XMLID_2_" class="st0" d="M39.9,0C17.9,0,0,17.9,0,39.9s17.9,39.9,39.9,39.9s39.9-17.9,39.9-39.9S61.9,0,39.9,0z
		 M39.9,74.6C20.8,74.6,5.2,59,5.2,39.9S20.7,5.2,39.9,5.2c19.1,0,34.7,15.5,34.7,34.7S59,74.6,39.9,74.6z"/>
</g>
</svg>
